<svg class="logo" version="1.0" xmlns="http://www.w3.org/2000/svg"
width="2048.000000pt" height="2048.000000pt" viewBox="0 0 2048.000000 2048.000000"
aria-labelledby="logoTitle logoDesc" role="img">

<g transform="translate(0.000000,2048.000000) scale(0.100000,-0.100000)"
fill="#000000" stroke="none">

<!-- Define the gradient -->
<defs>
<linearGradient id="grad1" x1="0%" y1="40%" x2="90%" y2="0%">
    <stop offset="0%" style="stop-color:rgb(255,0,0);stop-opacity:1" />
    <stop offset="100%" style="stop-color:rgb(50,0,0);stop-opacity:1" />
</linearGradient>
</defs>
// claps, lewa strona
<path d="M17580 19689 c-41 -4 -160 -15 -265 -24 -244 -21 -1035 -104 -1057
-111 -10 -3 -18 -11 -18 -17 0 -7 13 -106 30 -222 57 -401 78 -560 74 -567 -5
-7 -38 -11 -319 -33 -218 -18 -441 -42 -502 -56 -59 -13 -62 -12 -73 16 -11
28 -41 214 -65 395 -32 251 -56 405 -63 411 -4 3 -59 0 -122 -8 -63 -7 -220
-24 -348 -37 -129 -13 -239 -29 -244 -34 -15 -15 13 -284 59 -576 26 -166 33
-230 24 -235 -12 -8 -268 -35 -486 -52 -71 -5 -179 -14 -240 -19 -60 -6 -113
-10 -117 -10 -21 0 -45 106 -108 470 -21 117 -60 313 -65 318 -1 1 -72 -6
-156 -17 -85 -11 -220 -25 -301 -32 -81 -7 -153 -16 -160 -20 -13 -8 16 -262
67 -589 30 -191 31 -217 8 -224 -46 -14 -605 -76 -683 -76 -43 0 -49 3 -59 28
-11 26 -33 143 -91 467 -37 205 -50 268 -60 278 -4 5 -59 2 -121 -7 -63 -9
-211 -25 -329 -36 -118 -11 -251 -24 -295 -30 -44 -5 -181 -19 -305 -30 -316
-29 -307 -27 -313 -52 -6 -23 7 -161 28 -293 8 -49 21 -155 30 -235 8 -80 18
-168 21 -196 8 -62 13 -60 -141 -73 -60 -6 -180 -20 -265 -31 -85 -11 -192
-23 -237 -27 -98 -7 -88 -22 -128 182 -15 77 -40 194 -55 260 -16 66 -36 171
-45 234 -21 147 -20 144 -64 136 -20 -3 -124 -14 -231 -25 -307 -31 -393 -40
-417 -46 -19 -4 -23 -11 -23 -43 0 -44 37 -316 75 -551 32 -197 32 -218 3
-224 -13 -3 -102 -10 -198 -16 -96 -6 -242 -20 -325 -30 -82 -10 -181 -20
-220 -22 l-69 -3 -13 60 c-7 33 -24 119 -39 190 -88 437 -113 557 -116 560 -8
7 -555 -49 -565 -58 -7 -8 25 -257 78 -601 21 -133 26 -192 19 -201 -13 -16
-46 -22 -195 -35 -66 -6 -156 -17 -200 -25 -44 -8 -142 -22 -218 -31 -119 -15
-140 -16 -152 -3 -17 17 -136 496 -164 663 -11 66 -26 123 -33 127 -7 5 -22 6
-33 4 -11 -3 -130 -16 -265 -30 -312 -32 -300 -29 -300 -66 0 -31 35 -282 75
-544 37 -237 38 -218 -15 -227 -25 -5 -121 -17 -215 -28 -327 -38 -474 -57
-509 -66 -33 -8 -41 9 -66 149 -11 63 -32 168 -46 234 -14 65 -38 186 -53 268
l-27 150 -80 0 c-94 -1 -475 -44 -488 -56 -12 -11 16 -268 55 -494 16 -93 31
-202 35 -241 l7 -71 -34 -6 c-19 -4 -153 -16 -299 -27 -146 -11 -303 -25 -349
-31 -69 -8 -87 -7 -99 4 -12 13 -94 397 -148 697 l-19 105 -45 -2 c-135 -5
-529 -58 -543 -72 -5 -5 -2 -52 6 -107 29 -185 108 -669 113 -691 7 -28 15
-26 -266 -58 -288 -32 -452 -53 -483 -60 -14 -4 -28 -2 -31 4 -7 11 -128 555
-153 687 -8 45 -18 87 -23 93 -6 10 -36 9 -141 -3 -74 -9 -201 -23 -283 -31
-88 -9 -153 -20 -157 -27 -8 -13 -6 -31 31 -243 65 -370 83 -505 69 -521 -5
-6 -74 -16 -167 -23 -86 -7 -256 -23 -377 -36 -121 -14 -243 -27 -271 -30
l-51 -6 -11 38 c-6 21 -18 79 -27 128 -9 50 -27 144 -40 210 -12 66 -30 161
-39 210 -22 123 -37 175 -49 175 -5 0 -87 -9 -181 -20 -94 -10 -241 -26 -326
-35 -295 -31 -423 -46 -432 -51 -20 -12 0 -206 82 -824 12 -85 25 -188 30
-228 4 -40 10 -76 13 -79 3 -3 106 5 229 16 123 12 340 33 483 47 143 13 296
29 340 34 44 6 103 10 132 10 l52 0 3 -342 c2 -189 1 -346 -2 -349 -3 -4 -320
-9 -706 -12 -385 -4 -709 -9 -718 -13 -17 -6 -17 -34 -9 -498 4 -270 8 -603 7
-741 0 -137 -5 -2424 -9 -5082 -7 -3917 -6 -4835 5 -4847 9 -12 25 -15 64 -11
330 34 444 44 516 50 47 3 146 12 220 20 74 7 200 18 280 25 135 10 307 24
610 50 69 6 217 20 330 30 113 11 275 24 360 30 85 6 169 12 185 15 34 5 553
48 860 70 110 8 238 19 285 25 47 5 164 14 260 20 96 6 182 13 190 15 8 3 83
9 165 15 327 22 579 40 760 55 105 9 264 20 355 25 91 5 217 14 280 19 63 6
201 15 305 21 105 6 251 18 325 26 74 8 182 19 240 24 58 6 204 19 325 30 121
11 281 25 355 30 187 14 612 48 810 65 91 7 300 25 465 39 165 14 427 36 583
49 155 13 287 28 293 34 8 8 5 49 -10 140 -12 71 -21 150 -21 175 0 29 -6 50
-15 58 -12 10 -104 11 -433 6 -670 -10 -907 8 -1372 105 -266 55 -452 102
-598 150 -67 23 -130 38 -138 35 -14 -5 -15 -20 -9 -104 4 -53 11 -120 15
-149 3 -29 4 -57 0 -62 -6 -10 -86 -18 -390 -41 -150 -11 -427 -32 -658 -51
-160 -13 -162 -12 -162 75 0 33 -9 198 -19 366 -18 275 -24 403 -22 437 1 9
33 10 124 6 104 -5 124 -3 135 10 17 21 3 34 -144 131 -334 222 -820 645
-1074 936 -435 499 -692 890 -928 1410 -237 524 -374 1023 -434 1580 -21 200
-18 915 5 1100 57 456 167 885 343 1327 260 656 586 1189 1060 1738 176 204
481 488 684 639 52 39 118 91 146 116 102 89 158 131 221 166 54 30 93 72 93
98 0 3 -142 6 -315 8 -227 2 -318 6 -323 15 -4 6 -7 213 -7 460 l0 448 494 3
c450 2 496 1 513 -15 17 -15 18 -38 19 -337 0 -278 2 -373 8 -390 0 -2 67 25
149 61 312 136 472 202 588 243 65 23 135 49 154 57 90 37 530 147 713 177
109 19 200 36 203 39 3 3 9 48 12 101 l7 96 -185 1 c-102 0 -467 0 -812 0
l-628 1 0 46 c0 26 -3 64 -6 85 l-7 37 59 0 c33 0 88 5 124 10 67 10 1071 123
1195 135 39 3 171 17 295 31 124 13 288 31 365 39 613 66 1072 116 1135 125
41 5 118 14 170 20 52 5 158 17 235 25 77 9 192 20 255 25 63 5 160 16 215 24
104 16 234 31 395 46 52 5 165 18 250 29 200 27 902 101 1365 146 171 16 545
59 660 75 85 12 791 85 965 100 138 12 237 23 410 45 63 8 165 19 225 25 61 6
155 17 210 25 97 14 279 33 575 60 204 19 639 62 805 80 410 44 521 56 640 70
72 8 182 19 245 25 127 11 371 39 409 46 24 5 24 6 18 97 -7 94 -15 174 -42
422 -8 77 -22 217 -30 310 -8 94 -21 221 -30 284 -8 63 -15 117 -15 121 0 8
-35 8 -120 -1z m-12381 -2658 c8 -5 11 -122 9 -457 l-3 -449 -485 0 -485 0 0
442 c0 243 4 445 8 450 14 13 935 27 956 14z m-1666 -489 c5 -217 6 -400 3
-408 -5 -12 -95 -14 -586 -14 l-580 0 0 389 c0 351 2 389 16 395 9 4 211 11
448 16 237 6 456 12 486 14 30 1 89 2 130 2 l75 -1 8 -393z m-1738 -4477 c100
-34 169 -107 206 -217 39 -116 9 -234 -83 -322 -79 -75 -160 -108 -277 -114
-86 -4 -102 -2 -141 18 -71 36 -154 122 -185 192 -25 55 -27 69 -23 147 5 96
24 145 84 211 42 46 89 77 147 96 55 18 205 12 272 -11z m3361 -5266 c4 -7 9
-118 11 -248 2 -130 8 -317 12 -416 5 -104 5 -184 0 -189 -12 -14 -1102 -97
-1113 -85 -10 10 -11 838 -1 848 6 5 96 17 200 25 620 52 792 67 810 70 44 7
74 5 81 -5z m-1745 -256 c1 -65 3 -152 4 -193 1 -41 4 -181 6 -310 l4 -235
-220 -17 c-121 -9 -296 -24 -390 -33 -262 -25 -536 -44 -550 -39 -20 8 -25
104 -25 494 l0 368 73 6 c39 4 137 11 217 16 80 5 188 14 240 19 52 5 183 15
290 21 107 7 197 14 199 16 2 2 37 4 78 4 l73 0 1 -117z m-1900 -248 c9 -336
13 -635 8 -640 -3 -2 -104 -11 -224 -19 -121 -9 -317 -23 -435 -31 -424 -31
-465 -33 -471 -27 -11 12 -22 859 -11 866 5 3 79 10 163 16 239 16 569 40 734
55 83 7 168 12 190 11 l40 -1 6 -230z"  />
// claps prawa strona
<path d="M18117 17070 c-27 -5 -52 -11 -55 -15 -4 -3 -7 -81 -7 -173 0 -92 -2
-301 -3 -464 l-2 -298 -319 0 c-242 0 -322 3 -327 12 -5 7 -10 221 -12 477
l-5 464 -299 -6 c-165 -4 -303 -9 -308 -12 -4 -2 -10 -208 -15 -457 -4 -287
-11 -458 -17 -466 -8 -9 -107 -12 -452 -10 l-441 3 -6 430 c-3 237 -7 447 -8
468 l-1 38 -285 -3 c-207 -2 -287 -6 -296 -15 -9 -9 -12 -93 -11 -335 0 -178
-1 -383 -5 -455 l-5 -133 -479 0 -479 0 0 63 c-2 191 -15 814 -19 865 -1 9
-64 12 -280 12 -154 0 -287 -3 -296 -6 -14 -6 -16 -51 -15 -460 1 -249 -1
-458 -5 -464 -4 -7 -167 -10 -485 -10 l-478 0 -6 68 c-3 37 -9 245 -12 463
l-7 397 -45 6 c-25 3 -49 3 -53 -1 -4 -5 -9 -211 -11 -460 -2 -350 -6 -455
-16 -465 -8 -8 -50 -14 -117 -16 -100 -4 -104 -3 -129 21 l-26 26 0 452 0 452
-1205 -4 c-941 -3 -1206 -7 -1209 -16 -9 -23 -9 -174 0 -183 5 -5 97 -25 204
-44 575 -101 1100 -286 1574 -552 413 -233 692 -421 951 -643 231 -198 552
-533 772 -806 310 -385 632 -960 847 -1513 73 -186 88 -230 137 -397 92 -312
151 -616 191 -970 17 -152 17 -911 0 -1070 -31 -294 -83 -559 -183 -928 -65
-240 -106 -351 -247 -662 -59 -131 -246 -469 -326 -588 -122 -184 -286 -419
-324 -467 -128 -160 -540 -602 -767 -822 -101 -99 -98 -104 62 -89 296 29 449
39 456 32 4 -4 6 -170 5 -368 -3 -339 -4 -362 -22 -382 -27 -30 -69 -38 -256
-50 -91 -6 -221 -16 -290 -22 -210 -17 -534 -36 -549 -31 -12 4 -13 38 -7 199
4 106 4 193 1 193 -8 0 -149 -75 -375 -199 -96 -53 -188 -103 -205 -111 l-30
-15 0 -145 c0 -80 4 -234 9 -343 l8 -197 69 0 c37 0 123 4 191 10 68 5 303 24
523 40 220 17 481 37 580 45 99 8 268 21 375 30 107 8 272 22 365 30 94 8 256
22 360 30 105 8 206 17 225 20 19 3 154 14 300 25 146 11 339 27 430 35 91 8
275 24 410 35 654 53 906 74 1540 131 377 33 829 75 1005 92 l320 32 0 5325
c0 4726 -2 5325 -15 5326 -8 1 -37 -2 -63 -6z m-1205 -4992 c75 -35 148 -104
181 -171 76 -157 54 -281 -73 -401 -84 -78 -135 -98 -259 -99 -111 0 -170 24
-241 99 -76 81 -105 149 -105 254 0 99 21 151 93 231 79 88 154 120 272 116
56 -2 89 -9 132 -29z m52 -4450 c3 -13 8 -158 11 -323 4 -165 11 -331 16 -369
7 -54 7 -73 -3 -82 -14 -13 -183 -32 -533 -59 -222 -17 -411 -32 -555 -44 -55
-4 -98 -4 -101 1 -3 5 -9 62 -12 126 -4 64 -13 209 -22 322 -8 113 -15 237
-15 277 l0 72 43 5 c23 3 121 12 217 21 96 9 213 20 260 25 47 5 164 15 260
21 96 6 211 14 255 18 155 15 174 14 179 -11z m-1873 -387 c0 -146 4 -320 8
-386 5 -66 6 -126 4 -132 -3 -7 -19 -14 -36 -17 -102 -15 -234 -27 -374 -36
-326 -21 -473 -31 -632 -45 -91 -8 -168 -12 -173 -9 -4 3 -8 185 -8 404 l0
400 23 5 c12 2 119 12 237 20 326 24 443 34 585 50 204 23 339 32 353 22 9 -7
12 -75 13 -276z" />
<path d="M8805 16444 c-22 -2 -110 -9 -195 -15 -284 -19 -644 -74 -893 -135
-462 -113 -1012 -340 -1369 -567 -37 -23 -95 -60 -130 -81 -459 -286 -978
-783 -1314 -1261 -130 -184 -325 -515 -396 -672 -36 -80 -64 -142 -108 -237
-17 -39 -41 -93 -52 -120 -11 -28 -38 -96 -59 -151 -220 -555 -320 -1088 -323
-1720 -1 -289 12 -457 60 -747 55 -335 108 -540 209 -806 65 -172 85 -218 156
-368 23 -49 59 -125 79 -170 156 -332 583 -959 868 -1274 121 -134 361 -369
477 -467 183 -156 533 -402 731 -516 319 -182 782 -369 1139 -461 247 -63 562
-119 820 -146 169 -17 672 -24 880 -11 249 15 471 37 620 62 421 69 624 119
936 232 184 67 543 238 644 307 37 26 248 151 360 215 53 30 313 224 380 283
162 142 448 419 522 502 437 501 746 999 973 1570 86 217 192 600 244 880 75
406 87 963 30 1415 -74 600 -277 1225 -571 1760 -183 334 -286 491 -476 730
-570 717 -1247 1229 -2116 1600 -406 173 -956 307 -1456 355 -113 11 -598 21
-670 14z m430 -614 c293 -18 598 -58 804 -106 391 -92 815 -261 1176 -469 115
-66 415 -270 519 -353 699 -557 1246 -1365 1491 -2202 112 -385 165 -719 181
-1145 6 -181 -12 -531 -37 -690 -39 -254 -89 -483 -145 -665 -42 -135 -57
-177 -164 -440 -33 -80 -159 -331 -225 -446 -260 -451 -582 -819 -1046 -1196
-170 -138 -334 -248 -589 -396 -523 -301 -994 -460 -1600 -537 -776 -100
-1488 -16 -2172 256 -134 53 -473 218 -613 298 -407 233 -819 562 -1076 861
-323 374 -454 568 -669 985 -244 474 -395 1007 -441 1558 -14 169 -14 587 0
742 38 415 148 880 318 1340 134 362 407 818 637 1063 377 402 756 695 1321
1019 505 291 1083 462 1730 512 77 6 156 13 175 15 79 7 265 5 425 -4z" fill="url(#grad1)" />
<path d="M8745 15313 c-689 -45 -1332 -263 -1891 -641 -255 -172 -585 -441
-710 -578 -180 -198 -248 -287 -440 -576 -130 -196 -163 -256 -231 -421 -172
-413 -274 -793 -313 -1157 -32 -309 10 -906 86 -1230 72 -302 118 -438 234
-680 141 -298 175 -360 327 -606 97 -158 153 -235 259 -360 351 -411 638 -651
1134 -947 96 -57 348 -167 515 -225 232 -81 594 -167 825 -196 165 -21 561
-30 690 -17 58 7 175 18 260 26 85 8 203 24 263 35 59 11 153 28 210 39 145
27 276 69 557 179 254 100 306 127 665 347 295 180 453 309 735 600 219 225
400 511 604 952 238 516 344 1105 317 1768 -11 259 -43 540 -82 720 -40 182
-157 551 -226 714 -349 822 -954 1461 -1769 1869 -394 197 -903 338 -1364 377
-161 13 -508 18 -655 8z m468 -1523 c153 -23 295 -52 362 -74 39 -13 97 -32
130 -42 85 -26 231 -90 290 -127 225 -140 315 -210 460 -359 227 -233 358
-439 490 -767 49 -122 81 -241 114 -416 35 -190 42 -289 37 -545 -8 -365 -32
-481 -166 -791 -104 -239 -181 -363 -342 -549 -106 -124 -340 -344 -402 -378
-29 -17 -81 -49 -116 -71 -170 -110 -439 -217 -655 -260 -203 -41 -511 -54
-723 -30 -127 13 -381 72 -506 117 -130 46 -333 155 -472 253 -159 112 -363
312 -485 475 -84 112 -219 321 -219 339 0 3 -15 36 -34 74 -156 316 -219 968
-135 1401 29 151 148 490 220 630 55 107 214 332 301 426 276 300 605 516 932
614 146 43 273 67 416 79 144 12 422 12 503 1z"/>
<path d="M8695 13649 c-156 -18 -310 -46 -410 -76 -89 -27 -270 -121 -382
-199 -59 -42 -133 -93 -163 -113 -30 -20 -136 -117 -235 -216 -178 -177 -301
-328 -366 -449 -101 -187 -181 -462 -201 -691 -19 -229 -15 -527 10 -715 38
-278 52 -322 172 -563 137 -273 214 -374 456 -595 166 -152 424 -320 599 -390
155 -62 351 -121 450 -137 256 -40 581 -26 870 39 299 66 393 112 640 311 140
113 341 310 403 395 204 280 237 334 305 500 78 192 84 217 103 438 32 377 -9
808 -103 1097 -125 385 -213 531 -485 807 -166 169 -316 277 -522 377 -172 83
-266 117 -411 149 -252 56 -445 64 -730 31z m763 -148 c35 -16 72 -45 111 -87
53 -58 61 -73 85 -157 31 -111 32 -155 6 -232 -22 -63 -48 -102 -123 -182 -43
-46 -60 -56 -144 -84 -86 -28 -104 -31 -182 -27 -116 7 -159 28 -249 121 -103
107 -127 162 -127 292 0 121 17 162 103 255 46 49 73 67 137 95 79 34 82 35
205 32 106 -2 133 -6 178 -26z m-1068 -72 c25 -5 72 -20 104 -32 119 -44 204
-167 228 -327 21 -140 15 -179 -39 -283 -60 -113 -105 -151 -225 -187 -222
-67 -350 -11 -475 209 -99 174 -104 251 -26 403 48 93 97 144 183 189 71 36
167 47 250 28z m2072 -701 c32 -15 80 -47 107 -73 101 -94 158 -299 117 -421
-20 -60 -101 -163 -153 -194 -54 -32 -158 -60 -224 -60 -71 0 -203 27 -250 50
-52 27 -162 149 -194 216 -35 73 -40 170 -12 222 73 136 172 226 297 270 92
32 230 28 312 -10z m-2786 -95 c131 -44 192 -117 235 -284 41 -160 13 -309
-78 -410 -49 -54 -154 -96 -263 -104 -78 -6 -93 -4 -185 25 -91 29 -105 37
-156 89 -69 71 -85 119 -82 250 5 178 77 332 189 401 77 48 247 65 340 33z
m1539 -199 c33 -8 105 -37 160 -64 78 -38 119 -67 187 -130 77 -72 113 -117
209 -261 35 -52 87 -214 100 -311 16 -116 -1 -291 -38 -399 -37 -108 -110
-227 -188 -304 -92 -92 -255 -190 -383 -232 -101 -33 -115 -35 -252 -36 -189
-2 -348 32 -495 105 -129 65 -305 239 -370 368 -29 57 -74 199 -90 285 -30
160 10 354 111 538 87 159 275 325 445 394 68 28 179 49 324 62 114 10 194 6
280 -15z m1398 -967 c102 -50 150 -95 191 -179 32 -63 36 -79 36 -149 0 -116
-35 -218 -100 -291 -66 -74 -129 -104 -252 -119 -115 -14 -166 -1 -257 66
-117 86 -181 199 -181 318 0 125 43 221 132 302 84 76 145 96 276 91 72 -3 94
-9 155 -39z m-2983 -28 c80 -13 171 -60 216 -113 42 -49 105 -174 115 -231 34
-185 -162 -399 -401 -436 -144 -22 -258 10 -342 97 -120 125 -162 364 -88 507
29 56 94 122 155 158 47 27 56 29 165 29 63 0 144 -5 180 -11z m2145 -894 c60
-29 141 -95 182 -150 79 -103 102 -282 54 -420 -57 -164 -262 -286 -457 -272
-93 7 -152 36 -216 106 -87 95 -121 193 -119 351 0 93 16 146 70 238 51 88
110 135 200 161 116 35 195 31 286 -14z m-1293 -11 c104 -18 114 -22 179 -73
98 -78 151 -165 171 -281 16 -91 2 -159 -48 -241 -55 -91 -114 -143 -207 -179
-95 -38 -165 -46 -278 -31 -211 28 -369 173 -369 339 0 178 113 381 251 450
54 27 74 32 136 32 40 0 115 -7 165 -16z"/>
<path d="M13330 4884 c-127 -23 -346 -141 -474 -255 -163 -146 -284 -323 -346
-507 -32 -92 -33 -104 -34 -252 -1 -145 1 -161 28 -244 39 -118 100 -209 245
-358 175 -182 317 -278 512 -347 143 -49 258 -64 454 -58 218 6 359 39 540
126 133 64 195 108 298 208 213 209 310 453 294 743 -14 253 -102 429 -312
629 -158 150 -401 277 -604 315 -107 20 -490 20 -601 0z m501 -174 c9 -31 9
-1486 0 -1590 l-6 -75 -220 3 c-139 3 -225 8 -233 15 -20 16 -14 1629 6 1649
14 14 194 26 357 24 86 -1 89 -2 96 -26z"/>
<path d="M1957 4840 c-120 -4 -219 -9 -220 -11 -2 -2 0 -197 4 -434 4 -236 7
-678 8 -980 l1 -551 218 3 c119 2 245 6 280 9 l62 6 0 409 0 409 23 9 c12 5
58 12 102 15 108 10 407 53 458 67 189 49 367 142 442 231 122 144 123 427 3
564 -40 46 -131 107 -212 143 -207 94 -608 132 -1169 111z m603 -239 c53 -11
76 -36 107 -118 59 -158 64 -215 33 -350 -42 -177 -92 -215 -285 -217 l-110
-1 -3 335 c-1 184 0 341 3 347 5 15 183 17 255 4z"/>
<path d="M7390 4835 c-271 -33 -376 -70 -577 -207 -169 -114 -232 -181 -360
-373 -175 -265 -189 -484 -48 -771 145 -293 348 -470 675 -587 192 -69 298
-89 470 -90 156 0 312 15 400 40 89 25 250 107 340 173 46 34 123 104 172 155
213 220 295 386 305 616 10 221 -35 377 -170 579 -125 189 -282 303 -550 399
-73 27 -175 56 -227 65 -110 19 -280 19 -430 1z m412 -183 c10 -10 14 -177 19
-810 4 -444 3 -804 -2 -814 -12 -23 -91 -31 -249 -26 -112 3 -133 7 -157 24
l-28 21 -3 794 c-1 524 1 796 8 803 17 17 98 24 252 23 106 -2 151 -6 160 -15z"/>
<path d="M15524 4803 c-192 -3 -254 -6 -263 -16 -11 -14 44 -126 143 -291 62
-103 370 -712 470 -931 117 -253 316 -636 348 -668 38 -39 64 -32 110 28 47
61 153 238 243 405 38 69 110 199 160 290 111 199 203 367 280 515 65 122 176
320 211 376 73 116 125 222 114 233 -7 7 -56 11 -133 11 l-122 0 -39 -80 c-21
-44 -78 -154 -126 -245 -48 -91 -122 -232 -164 -315 -41 -82 -101 -193 -132
-245 -31 -52 -77 -133 -101 -180 -48 -90 -61 -110 -73 -110 -8 0 -77 144 -134
280 -20 47 -45 103 -56 125 -60 124 -126 270 -156 343 -30 73 -72 166 -175
388 -15 33 -34 65 -41 71 -20 16 -89 19 -364 16z"/>
<path d="M11828 4783 c-26 -3 -45 -13 -63 -35 -27 -32 -126 -223 -140 -268 -4
-14 -43 -99 -87 -190 -44 -91 -97 -208 -118 -260 -54 -134 -138 -310 -148
-310 -11 0 -33 64 -92 275 -28 99 -71 243 -94 320 -54 177 -101 336 -118 400
l-14 50 -54 7 c-30 3 -112 6 -181 7 -97 1 -129 -2 -138 -13 -16 -19 -28 -100
-46 -301 -8 -93 -28 -249 -44 -345 -44 -259 -79 -496 -86 -575 -4 -38 -12
-110 -20 -160 -7 -49 -19 -139 -25 -200 -7 -60 -16 -137 -20 -170 -4 -33 -5
-64 0 -68 4 -4 40 -7 81 -5 l74 3 7 45 c3 25 14 99 23 165 15 115 27 194 60
410 8 55 23 159 34 230 11 72 23 164 26 205 11 129 25 144 51 53 8 -32 44
-146 79 -253 161 -491 234 -720 250 -775 23 -81 37 -95 94 -95 25 0 51 4 58 8
6 4 26 43 43 87 17 44 46 116 65 160 18 44 44 112 58 150 45 125 116 293 168
403 86 180 135 293 174 395 20 53 41 97 45 97 19 0 33 -191 65 -905 15 -312
19 -363 35 -385 17 -24 21 -25 126 -23 60 2 165 6 234 10 l125 8 3 35 c2 19
-3 85 -12 145 -45 308 -73 612 -86 930 -11 271 -35 621 -48 696 l-8 44 -149 1
c-83 0 -167 -1 -187 -3z"/>
<path d="M17968 3839 c-2 -565 1 -914 7 -920 15 -15 490 -12 503 4 7 8 13 310
18 920 l7 907 -266 0 -267 0 -2 -911z"/>
<path d="M4178 4734 c-9 -3 -19 -11 -22 -19 -3 -8 -1 -301 5 -652 5 -351 9
-757 7 -904 -1 -146 2 -271 6 -278 6 -10 69 -12 288 -10 154 2 282 7 284 11 3
5 -2 86 -10 181 -8 94 -18 233 -21 307 -6 130 -29 397 -41 470 -8 52 4 34 102
-145 48 -88 115 -205 149 -260 98 -158 208 -344 245 -413 18 -34 52 -83 75
-107 l41 -45 261 0 c144 0 268 3 277 6 27 10 18 42 -27 97 -24 29 -88 118
-142 197 -55 80 -123 178 -153 218 -95 130 -292 420 -292 432 0 3 26 14 58 24
73 22 174 87 217 141 19 23 47 68 62 101 23 51 27 71 26 146 -2 135 -23 189
-108 273 -115 115 -278 184 -495 211 -122 15 -754 29 -792 18z m693 -240 c14
-7 31 -19 38 -27 35 -43 54 -198 41 -336 -13 -138 -18 -143 -140 -149 l-90 -4
0 264 c0 146 3 268 7 272 10 10 113 -4 144 -20z"/>
<path d="M19225 4700 l-69 -5 1 -555 c1 -305 2 -705 2 -887 l1 -333 560 0 560
0 0 125 0 125 -292 2 -293 3 -3 284 c-1 192 1 288 8 295 7 7 102 11 278 11
l267 0 3 142 c2 118 0 144 -13 157 -14 14 -51 16 -276 16 l-259 0 0 158 0 159
173 6 c94 4 229 7 298 7 l126 0 6 143 c3 78 4 144 2 146 -7 6 -1003 7 -1080 1z"/>
<path d="M12610 2463 c-124 -21 -283 -86 -366 -149 -108 -82 -163 -169 -194
-306 -19 -83 -22 -117 -17 -230 4 -119 8 -142 37 -215 41 -107 93 -185 165
-251 73 -67 139 -105 240 -139 76 -26 89 -27 280 -27 190 0 204 2 276 27 152
52 290 157 347 264 55 105 67 167 67 368 0 200 -7 239 -62 349 -47 94 -67 119
-134 166 -154 108 -294 151 -489 149 -69 -1 -136 -4 -150 -6z m240 -186 c23
-11 25 -19 31 -97 7 -109 -2 -825 -11 -840 -11 -17 -89 -32 -131 -25 -30 5
-39 12 -44 33 -4 15 -9 214 -11 442 -2 228 -6 432 -10 452 -5 33 -3 39 17 46
29 11 127 4 159 -11z"/>
<path d="M9985 2450 c-3 -5 -5 -298 -4 -651 1 -488 4 -642 13 -645 18 -7 504
11 512 18 3 4 9 77 12 163 3 104 9 158 17 165 20 17 59 -23 91 -92 25 -55 29
-75 29 -153 l0 -90 285 -6 c157 -4 288 -5 293 -2 16 9 5 27 -56 91 -76 80
-204 240 -270 337 -54 81 -58 72 54 135 141 80 199 164 207 299 10 174 -77
310 -237 371 -106 41 -195 51 -511 60 -405 12 -428 12 -435 0z m664 -148 c34
-34 46 -119 32 -232 -8 -62 -14 -79 -37 -98 -50 -44 -58 -30 -64 103 -3 66 -4
150 -2 188 4 58 7 67 24 67 11 0 32 -12 47 -28z"/>
<path d="M8615 2430 c-197 -39 -328 -99 -427 -195 -114 -111 -159 -224 -160
-400 -2 -260 98 -464 291 -593 79 -52 147 -77 267 -98 118 -20 337 -15 429 10
88 24 277 97 299 115 18 15 18 29 11 271 -3 140 -11 262 -16 272 -21 40 -60
48 -227 48 -165 0 -257 -11 -280 -33 -21 -22 -33 -133 -35 -322 -2 -209 -6
-216 -81 -142 -38 39 -46 54 -60 118 -26 120 -37 241 -37 402 1 171 12 260 39
297 29 40 98 70 162 70 88 0 238 -36 293 -70 89 -55 112 -34 66 59 -33 66
-112 145 -169 169 -41 17 -190 42 -240 41 -19 -1 -75 -9 -125 -19z"/>
<path d="M14070 2421 l-55 -6 -3 -60 c-1 -33 2 -226 7 -430 10 -414 15 -449
79 -544 135 -202 474 -311 755 -243 114 28 151 48 218 119 68 71 94 119 107
199 6 32 12 262 14 509 l3 450 -45 0 -45 0 -8 -425 c-8 -442 -14 -503 -55
-575 -21 -35 -70 -70 -121 -86 -56 -17 -213 -23 -255 -9 -57 18 -131 83 -157
137 -22 44 -24 62 -27 237 -2 104 1 261 7 351 10 150 2 358 -15 375 -8 7 -339
8 -404 1z"/>
<path d="M15870 2427 c-4 -4 -5 -1096 -1 -1230 l1 -38 194 3 c107 2 198 7 202
11 5 5 10 113 12 241 l4 234 82 7 c117 10 268 40 313 64 80 40 140 97 173 165
27 55 32 75 32 144 1 113 -22 173 -88 240 -61 60 -139 101 -259 133 -72 20
-111 23 -370 27 -159 2 -292 1 -295 -1z m494 -159 c17 -27 36 -183 36 -297 0
-76 -1 -80 -31 -105 -17 -14 -41 -26 -55 -26 l-24 0 0 218 c0 120 3 222 7 225
14 15 53 6 67 -15z"/>
<path d="M18250 2144 c-224 -36 -328 -122 -386 -319 -21 -73 -23 -234 -5 -320
29 -135 113 -251 215 -295 65 -29 220 -53 291 -45 74 8 193 34 199 43 2 4 -1
43 -7 85 l-11 79 -31 -6 c-203 -39 -307 -28 -389 44 -63 56 -79 99 -84 230 -4
114 -3 115 30 180 72 141 223 189 366 117 30 -15 55 -27 57 -27 9 0 85 110 85
123 0 24 -75 75 -134 92 -56 15 -157 25 -196 19z"/>
<path d="M18933 2130 c-114 -37 -185 -110 -224 -230 -17 -50 -23 -99 -26 -212
-8 -214 20 -326 103 -418 48 -53 86 -75 167 -95 143 -36 319 19 389 120 101
148 117 466 32 654 -35 80 -114 154 -185 175 -89 27 -186 29 -256 6z m213
-195 c43 -33 61 -73 82 -179 31 -155 -14 -353 -90 -392 -17 -9 -53 -18 -82
-21 -42 -4 -57 -1 -86 19 -81 55 -105 136 -98 329 4 104 9 134 27 172 49 102
164 135 247 72z"/>
<path d="M19557 2133 c-4 -3 -7 -221 -7 -484 l0 -477 23 -3 c12 -3 52 -3 88
-1 l65 4 3 386 c2 344 8 439 25 391 3 -8 21 -103 40 -213 21 -125 39 -202 47
-207 18 -11 90 -11 108 0 13 8 30 81 71 315 10 60 21 111 24 113 22 23 26 -34
26 -398 l0 -389 80 0 80 0 2 388 c2 213 2 431 0 485 l-3 97 -127 0 -128 0 -22
-132 c-41 -247 -47 -273 -57 -273 -9 0 -17 39 -62 297 l-18 108 -126 0 c-69 0
-129 -3 -132 -7z"/>
<path d="M17337 1405 c-48 -17 -67 -33 -84 -72 -20 -49 -16 -87 12 -117 70
-76 184 -63 219 24 40 100 -48 199 -147 165z"/>
</g>
</svg>
